<?xml version="1.0" encoding="UTF-8" standalone="no"?>
<!-- Created with Inkscape (http://www.inkscape.org/) -->
<svg id="svg3602" xmlns:rdf="http://www.w3.org/1999/02/22-rdf-syntax-ns#" xmlns="http://www.w3.org/2000/svg" height="72.712mm" width="95.002mm" version="1.1" xmlns:cc="http://creativecommons.org/ns#" xmlns:dc="http://purl.org/dc/elements/1.1/" viewBox="0 0 336.61985 257.64104">
 <metadata id="metadata3607">
  <rdf:RDF>
   <cc:Work rdf:about="">
    <dc:format>image/svg+xml</dc:format>
    <dc:type rdf:resource="http://purl.org/dc/dcmitype/StillImage"/>
    <dc:title/>
   </cc:Work>
  </rdf:RDF>
 </metadata>
 <g id="layer1" transform="translate(-185.98 -109.26)">
  <g id="g3483" transform="matrix(.125 0 0 -.125 173.85 371.88)">
   <g fill="#c20909">
    <path id="path3485" d="m1146 2025c-20-42-38-92-42-111-3-19-8-34-10-34-3 0-32 14-66 31-41 21-59 26-55 16 27-71 29-96 13-143-9-26-16-59-16-73s-14-55-30-89c-17-35-30-68-30-73s12-9 28-9c22 0 31 8 51 50 14 27 48 72 76 100 118 116 266 164 443 142 152-19 303-120 363-242 20-42 29-50 52-50 33 0 34 8 2 70-14 28-40 98-58 158-26 83-44 122-81 172-26 36-49 67-51 68-2 2-15-19-30-47l-25-51-103 84c-56 47-102 84-103 83s2-27 6-57 6-56 5-58c-1-1-42 7-91 19-75 18-98 28-151 70l-62 50-35-76z"/>
    <path id="path3487" d="m540 1901-115-69-68 34c-48 25-69 31-71 22-3-7-8-31-13-53l-9-40-67 3c-43 3-67 0-67-7 0-6 12-41 26-78 14-38 26-87 27-110 2-36 5-43 22-43 13 0 27 13 40 36 61 113 267 209 405 189 89-13 187-54 238-99 29-26 52-9 35 26-13 25-22 63-30 121-3 20-9 39-13 42s-29-2-55-10l-48-14-61 59-62 59-114-68z"/>
    <path id="path3489" d="m2204 1929-51-39-72 15c-112 23-108 25-116-52-4-38-11-86-15-108-13-61 3-72 50-35 92 73 237 111 342 90 127-25 235-90 293-176 32-50 52-64 68-48 3 4 0 22-8 41-8 20-15 59-15 87s-3 88-6 133l-7 82-65-25-65-24-137 50c-75 27-139 50-141 49-2 0-27-18-55-40z"/>
   </g>
   <path id="path3491" d="m2667 1513c25-88-7-193-79-263l-40-38 12-54c7-29 23-89 36-133s25-91 28-105c10-53 48-204 66-263 10-34 21-75 24-92 3-16 10-45 15-62l10-33h-345c-299 0-344-2-344-15s48-15 370-15c204 0 370 1 370 3 0 10-91 364-110 427-12 41-23 84-25 95-1 11-8 40-15 65s-13 52-15 60-9 36-15 62c-12 46-12 47 21 80 19 19 47 57 62 86 25 46 28 59 25 134-3 83-3 83-31 86-26 3-27 2-20-25z"/>
   <path id="path3493" d="m164 1475c-3-25-3-65 0-87 7-43 62-168 74-168 4-1 17-9 29-19l22-18-28-94c-25-82-43-155-55-224-6-31-26-105-41-150-7-22-16-56-19-75s-17-74-30-122c-13-47-22-89-18-92 3-3 169-6 369-6 315 0 363 2 363 15s-47 15-344 17l-344 3 28 95c15 52 35 131 45 175s30 125 45 180 33 125 40 155 19 70 27 88c15 32 15 32-31 82-76 82-107 178-83 263 7 24 5 27-17 27s-26-6-32-45z"/>
   <path id="path3495" d="m894 1434c-16-128 22-252 103-344l40-45-62-270c-34-148-86-370-114-493-29-122-49-227-46-232 8-13 1222-14 1230 0 3 5-8 69-26 142-17 73-42 178-55 233s-37 156-54 225-44 184-61 257l-31 132 42 48c84 95 122 218 106 347-7 54-8 56-38 56-21 0-29-4-25-13 3-8 8-38 12-68 12-100-30-215-110-299-40-43-62-86-45-92 4-2 24-75 45-163 20-88 62-261 92-385 29-124 61-254 69-290 9-36 18-73 20-82 5-17-26-18-556-18h-560l5 22c6 27 48 210 75 323 28 118 88 377 111 480 11 50 24 98 30 107 17 32 9 54-32 93-80 79-127 202-114 303 4 30 9 61 12 69 4 9-4 13-25 13-30 0-31-2-38-56z"/>
  </g>
 </g>
</svg>
